<svg width="20.000000" height="20.000000" viewBox="0 0 20 20" fill="none" xmlns="http://www.w3.org/2000/svg" xmlns:xlink="http://www.w3.org/1999/xlink">
	<rect id="bag 1" width="20.000000" height="20.000000" fill="#FFFFFF" fill-opacity="0"/>
		<path id="Vector" d="M10.24 19.99L4.1 20C3.52 19.99 3.02 19.6 3 18.93L3 5.94C3 5.86 2.99 5.78 3.01 5.71L3.02 5.69C3.17 5.25 3.43 5.2 3.79 5.19L6.58 5.2C6.68 5.2 6.74 5.24 6.74 5.11L6.74 4.08C6.74 3.8 6.72 3.5 6.75 3.22C6.9 1.45 8.17 0.16 9.76 0.01L9.78 0C9.98 0 10.2 -0.02 10.4 0.01C11.8 0.17 12.9 1.39 13.17 2.87C13.24 3.25 13.24 3.59 13.24 3.97L13.24 5.19C13.3 5.2 13.38 5.2 13.44 5.2L16.13 5.19C16.5 5.19 16.86 5.22 16.97 5.71L16.98 5.73C17.01 5.86 16.99 6.02 16.99 6.16L16.99 18.99C16.97 19.37 16.71 19.73 16.41 19.89C16.2 19.99 16.01 19.99 15.79 19.99L10.24 19.99ZM9.86 1.83C9.13 1.92 8.56 2.5 8.43 3.29C8.4 3.49 8.42 3.72 8.42 3.93L8.42 5.19L10.16 5.19L11.55 5.19L11.55 3.56C11.55 2.53 10.82 1.76 9.86 1.83ZM7.38 7.52C6.04 7.64 6.15 9.73 7.49 9.7C8.86 9.52 8.61 7.42 7.38 7.52ZM12.52 7.53C11.18 7.69 11.31 9.74 12.65 9.7C13.97 9.53 13.86 7.45 12.52 7.53Z" fill="#2C2826" fill-opacity="1.000000" fill-rule="nonzero"/>
</svg>
