<svg width="400.000000" height="57.000000" viewBox="0 0 400 57" fill="none" xmlns="http://www.w3.org/2000/svg" xmlns:xlink="http://www.w3.org/1999/xlink">
	<desc>
			Created with Pixso.
	</desc>
	<defs/>
	<path id="Vector 1" d="M35.08 8.12L7.21 8.12C5.12 8.12 3.39 9.73 3.23 11.81L0.84 43.18C0.55 46.92 5.1 48.96 7.71 46.26L37.96 14.89C40.41 12.35 38.61 8.12 35.08 8.12Z" fill="#FF8A00" fill-opacity="1.000000" fill-rule="nonzero"/>
	<path id="Vector" d="M382.82 10.03L398.9 10.03L398.9 46.12L382.82 46.12L382.82 44.49C382.82 44.23 382.57 44.23 382.5 44.23C382.44 44.23 382.38 44.23 382.31 44.29C380.37 46.31 378.17 47.29 375.66 47.29C368.43 47.29 363.16 39.15 363.16 28.4C363.16 17.97 369.12 9.51 376.47 9.51L376.54 9.51C378.73 9.51 380.68 10.29 382.31 11.85C382.38 11.92 382.44 11.92 382.5 11.92C382.57 11.92 382.82 11.85 382.82 11.59L382.82 10.03ZM382.82 34.85L382.82 21.88C382.82 21.17 382.25 20.65 381.56 20.65C380.87 20.65 380.37 21.17 380.37 21.88L380.37 34.85C380.37 35.56 380.87 36.08 381.56 36.08C382.25 36.08 382.82 35.56 382.82 34.85Z" fill="#FF8A00" fill-opacity="1.000000" fill-rule="nonzero"/>
	<path id="Vector" d="M352 31.72L343.27 32.96C342.51 33.02 342.26 33.74 342.26 34.2C342.26 34.33 342.33 35.43 343.39 35.43C343.46 35.43 343.52 35.43 343.58 35.43L361.05 32.89L361.05 46.12L336.92 46.12C331.14 46.12 326.5 41.3 326.5 35.3C326.5 29.9 330.39 25.14 335.54 24.42L344.46 23.12C345.28 23.06 345.47 22.4 345.47 21.95C345.47 21.82 345.34 20.65 344.46 20.65C344.34 20.65 344.27 20.71 344.15 20.71L326.5 23.25L326.5 10.03L350.62 10.03C356.4 10.03 361.05 14.91 361.05 20.91C361.05 26.31 357.15 30.87 352 31.72Z" fill="#FF8A00" fill-opacity="1.000000" fill-rule="nonzero"/>
	<path id="Vector" d="M314.27 31.72L305.54 32.96C304.79 33.02 304.54 33.74 304.54 34.2C304.54 34.33 304.6 35.43 305.67 35.43C305.73 35.43 305.79 35.43 305.85 35.43L323.32 32.89L323.32 46.12L299.2 46.12C293.42 46.12 288.77 41.3 288.77 35.3C288.77 29.9 292.66 25.14 297.81 24.42L306.73 23.12C307.55 23.06 307.74 22.4 307.74 21.95C307.74 21.82 307.61 20.65 306.73 20.65C306.61 20.65 306.54 20.71 306.42 20.71L288.77 23.25L288.77 10.03L312.89 10.03C318.67 10.03 323.32 14.91 323.32 20.91C323.32 26.31 319.42 30.87 314.27 31.72Z" fill="#FF8A00" fill-opacity="1.000000" fill-rule="nonzero"/>
	<path id="Vector" d="M285.46 9.7C285.15 11.98 283.95 13.87 282.26 15.11C280.56 16.35 278.87 16.74 277.54 16.74C277.11 16.74 276.73 16.67 276.29 16.61C274.09 16.15 272.27 14.98 271.07 13.22C269.82 11.46 269.51 9.7 269.51 8.4C269.51 7.94 269.57 7.49 269.63 7.03C269.95 4.75 271.14 2.86 272.83 1.56C274.53 0.32 276.23 0 277.48 0C277.92 0 278.36 0.06 278.87 0.13C281.06 0.45 282.89 1.69 284.08 3.45C285.27 5.21 285.59 6.97 285.59 8.27C285.59 8.72 285.52 9.18 285.46 9.7ZM285.59 46.12L269.51 46.12L269.51 19.21L285.59 19.21L285.59 46.12Z" fill="#FF8A00" fill-opacity="1.000000" fill-rule="nonzero"/>
	<path id="Vector" d="M255.14 9.51C262.37 9.51 267.64 17.65 267.64 28.4C267.64 38.75 261.68 47.29 254.26 47.29C252.06 47.29 250.18 46.51 248.48 44.88C248.42 44.81 248.36 44.81 248.3 44.81C248.23 44.81 247.98 44.88 247.98 45.14L247.98 56.93L231.9 56.93L231.9 10.03L247.98 10.03L247.98 12.24C247.98 12.5 248.23 12.5 248.3 12.5C248.36 12.5 248.42 12.5 248.48 12.44C250.37 10.48 252.57 9.51 255.14 9.51ZM250.43 34.85L250.43 21.88C250.43 21.17 249.87 20.65 249.17 20.65C248.48 20.65 247.98 21.17 247.98 21.88L247.98 34.85C247.98 35.56 248.48 36.08 249.17 36.08C249.87 36.08 250.43 35.56 250.43 34.85Z" fill="#FF8A00" fill-opacity="1.000000" fill-rule="nonzero"/>
	<path id="Vector" d="M196.35 9.51L196.41 9.51C206.46 9.51 214.63 17.97 214.63 28.4C214.63 38.75 206.34 47.29 196.35 47.29C186.3 47.29 178.13 38.75 178.13 28.4C178.13 17.97 186.3 9.51 196.35 9.51ZM197.6 34.85L197.6 21.88C197.6 21.17 197.1 20.65 196.41 20.65C195.72 20.65 195.22 21.17 195.22 21.88L195.22 34.85C195.22 35.56 195.72 36.08 196.41 36.08C197.1 36.08 197.6 35.56 197.6 34.85Z" fill="#FF8A00" fill-opacity="1.000000" fill-rule="nonzero"/>
	<path id="Vector" d="M160.19 10.03L176.27 10.03L176.27 39.99C176.27 52.63 169.99 56.93 159.88 56.93L155.86 56.93L155.86 48.46L159.88 48.46C160.07 48.46 160.19 48.4 160.19 48.2L160.19 44.49C160.19 44.23 159.94 44.23 159.88 44.23C159.82 44.23 159.75 44.23 159.69 44.29C157.74 46.31 155.54 47.29 153.03 47.29C145.81 47.29 140.53 39.15 140.53 28.4C140.53 17.97 146.5 9.51 153.85 9.51L153.91 9.51C156.11 9.51 158.06 10.29 159.69 11.85C159.75 11.92 159.82 11.92 159.88 11.92C159.94 11.92 160.19 11.85 160.19 11.59L160.19 10.03ZM160.19 34.85L160.19 21.88C160.19 21.17 159.63 20.65 158.94 20.65C158.25 20.65 157.74 21.17 157.74 21.88L157.74 34.85C157.74 35.56 158.25 36.08 158.94 36.08C159.63 36.08 160.19 35.56 160.19 34.85Z" fill="#FF8A00" fill-opacity="1.000000" fill-rule="nonzero"/>
	<path id="Vector" d="M106.05 9.51L106.11 9.51C116.16 9.51 124.33 17.97 124.33 28.4C124.33 38.75 116.04 47.29 106.05 47.29C96 47.29 87.83 38.75 87.83 28.4C87.83 17.97 96 9.51 106.05 9.51ZM107.3 34.85L107.3 21.88C107.3 21.17 106.8 20.65 106.11 20.65C105.42 20.65 104.92 21.17 104.92 21.88L104.92 34.85C104.92 35.56 105.42 36.08 106.11 36.08C106.8 36.08 107.3 35.56 107.3 34.85Z" fill="#FF8A00" fill-opacity="1.000000" fill-rule="nonzero"/>
	<path id="Vector" d="M69.89 10.03L85.97 10.03L85.97 39.99C85.97 52.63 79.69 56.93 69.58 56.93L65.56 56.93L65.56 48.46L69.58 48.46C69.77 48.46 69.89 48.4 69.89 48.2L69.89 44.49C69.89 44.23 69.64 44.23 69.58 44.23C69.51 44.23 69.45 44.23 69.39 44.29C67.44 46.31 65.24 47.29 62.73 47.29C55.51 47.29 50.23 39.15 50.23 28.4C50.23 17.97 56.2 9.51 63.55 9.51L63.61 9.51C65.81 9.51 67.76 10.29 69.39 11.85C69.45 11.92 69.51 11.92 69.58 11.92C69.64 11.92 69.89 11.85 69.89 11.59L69.89 10.03ZM69.89 34.85L69.89 21.88C69.89 21.17 69.33 20.65 68.63 20.65C67.94 20.65 67.44 21.17 67.44 21.88L67.44 34.85C67.44 35.56 67.94 36.08 68.63 36.08C69.33 36.08 69.89 35.56 69.89 34.85Z" fill="#FF8A00" fill-opacity="1.000000" fill-rule="nonzero"/>
</svg>
